HIERARCHY
ROOT Hips
{
	OFFSET 0.000000 0.000000 0.000000
	CHANNELS 6 Xposition Yposition Zposition Zrotation Yrotation Xrotation 
	JOINT LeftUpLeg_virtual
	{
		OFFSET 0.000000 0.000000 0.000000
		CHANNELS 3 Zrotation Yrotation Xrotation
		JOINT LeftUpLeg
		{
			OFFSET 8.479694 -4.795517 -0.379053
			CHANNELS 3 Zrotation Yrotation Xrotation
			JOINT LeftLeg
			{
				OFFSET 0.485052 -32.551468 0.112863
				CHANNELS 3 Zrotation Yrotation Xrotation
				JOINT LeftFoot
				{
					OFFSET 0.438033 -32.635670 -3.012641
					CHANNELS 3 Zrotation Yrotation Xrotation
					JOINT LeftToeBase
					{
						OFFSET 0.970169 -13.225353 11.864223
						CHANNELS 3 Zrotation Yrotation Xrotation
						End Site
						{
							OFFSET 0.000000 0.000000 0.000000
						}
					}
				}
			}
		}
	}
	JOINT RightUpLeg_virtual
	{
		OFFSET 0.000000 0.000000 0.000000
		CHANNELS 3 Zrotation Yrotation Xrotation
		JOINT RightUpLeg
		{
			OFFSET -8.479694 -4.795517 -0.379053
			CHANNELS 3 Zrotation Yrotation Xrotation
			JOINT RightLeg
			{
				OFFSET -0.484100 -32.551483 0.112903
				CHANNELS 3 Zrotation Yrotation Xrotation
				JOINT RightFoot
				{
					OFFSET -0.438985 -32.635651 -3.012681
					CHANNELS 3 Zrotation Yrotation Xrotation
					JOINT RightToeBase
					{
						OFFSET -0.970169 -13.225354 11.864223
						CHANNELS 3 Zrotation Yrotation Xrotation
						End Site
						{
							OFFSET 0.000000 0.000000 0.000000
						}
					}
				}
			}
		}
	}
	JOINT Spine_virtual
	{
		OFFSET 0.000000 0.000000 0.000000
		CHANNELS 3 Zrotation Yrotation Xrotation
		JOINT Spine
		{
			OFFSET 0.000000 7.722015 1.166203
			CHANNELS 3 Zrotation Yrotation Xrotation
			JOINT Spine1
			{
				OFFSET 0.000000 12.024086 0.248766
				CHANNELS 3 Zrotation Yrotation Xrotation
				JOINT Spine2
				{
					OFFSET -0.000000 11.503036 -0.491240
					CHANNELS 3 Zrotation Yrotation Xrotation
					JOINT Neck_virtual
					{
						OFFSET 0.000000 0.000000 0.000000
						CHANNELS 3 Zrotation Yrotation Xrotation
						JOINT Neck
						{
							OFFSET 0.000000 18.430687 -3.123054
							CHANNELS 3 Zrotation Yrotation Xrotation
							JOINT Head
							{
								OFFSET -0.000000 9.051071 1.034021
								CHANNELS 3 Zrotation Yrotation Xrotation
								End Site
								{
									OFFSET 0.000000 0.000000 0.000000
								}
							}
						}
					}
					JOINT LeftShoulder_virtual
					{
						OFFSET 0.000000 0.000000 0.000000
						CHANNELS 3 Zrotation Yrotation Xrotation
						JOINT LeftShoulder
						{
							OFFSET 6.197824 13.665230 -4.064723
							CHANNELS 3 Zrotation Yrotation Xrotation
							JOINT LeftArm
							{
								OFFSET 7.778132 -0.187073 -1.709282
								CHANNELS 3 Zrotation Yrotation Xrotation
								JOINT LeftForeArm
								{
									OFFSET 21.954697 0.000000 -2.041093
									CHANNELS 3 Zrotation Yrotation Xrotation
									JOINT LeftHand
									{
										OFFSET 22.992908 0.000000 -0.870901
										CHANNELS 3 Zrotation Yrotation Xrotation
										End Site
										{
											OFFSET 0.000000 0.000000 0.000000
										}
									}
								}
							}
						}
					}
					JOINT RightShoulder_virtual
					{
						OFFSET 0.000000 0.000000 0.000000
						CHANNELS 3 Zrotation Yrotation Xrotation
						JOINT RightShoulder
						{
							OFFSET -6.197824 13.665230 -4.064723
							CHANNELS 3 Zrotation Yrotation Xrotation
							JOINT RightArm
							{
								OFFSET -7.778132 -0.187073 -1.709282
								CHANNELS 3 Zrotation Yrotation Xrotation
								JOINT RightForeArm
								{
									OFFSET -21.954697 0.000000 -2.041093
									CHANNELS 3 Zrotation Yrotation Xrotation
									JOINT RightHand
									{
										OFFSET -22.992908 0.000000 -0.870901
										CHANNELS 3 Zrotation Yrotation Xrotation
										End Site
										{
											OFFSET 0.000000 0.000000 0.000000
										}
									}
								}
							}
						}
					}
				}
			}
		}
	}
}
MOTION
Frames: 8
Frame Time: 0.033333
-6.012968 54.084621 27.492285 -179.956907 5.985793 -179.859303 0.031010 -0.169325 -15.801919 2.057691 6.482609 -72.684660 7.393238 3.683324 82.565669 4.334196 -20.192720 -8.349133 0.000000 0.000000 0.000000 -1.554467 4.602800 -13.919482 6.892402 -0.496831 -81.328592 -1.898649 -0.466858 107.238731 -3.885009 12.841961 -11.143008 0.000000 0.000000 0.000000 -2.849513 7.937777 -17.559860 -9.320223 -6.373591 2.245656 -2.506879 0.278851 12.092321 0.006766 0.013569 -0.001765 -3.100961 1.316766 15.467069 -2.578637 -3.485686 4.225501 0.000000 0.000000 0.000000 -0.097134 1.611724 10.837575 -14.776033 -5.730270 2.781973 -43.677004 -6.265690 23.332966 -30.902952 -78.768945 47.375271 0.000000 0.000000 0.000000 -5.283650 3.521548 10.519354 13.408706 -5.328191 -7.564109 15.200043 -19.965072 -27.082313 -2.771784 62.403217 0.662557 0.000000 0.000000 0.000000 
-6.129323 54.015209 27.855284 179.948983 6.144667 -179.998489 -0.398567 0.207603 -16.106474 2.114063 6.790579 -72.219852 7.994594 3.939723 81.856566 4.900067 -19.713157 -7.400368 0.000000 0.000000 0.000000 -1.415518 5.566164 -14.479747 5.778088 1.170321 -80.575311 -1.711123 0.120958 101.081718 -3.732848 12.385880 -9.456402 0.000000 0.000000 0.000000 -3.106684 8.383660 -17.495214 -9.627394 -6.309050 2.396183 -2.552076 0.218028 11.977748 0.001469 0.109953 0.029607 -3.080501 1.420130 15.361731 -2.379029 -3.500664 4.185155 0.000000 0.000000 0.000000 -0.047546 1.687500 10.853977 -15.004469 -5.994433 2.718102 -43.802505 -6.089947 22.529734 -27.868992 -78.644014 45.029692 0.000000 0.000000 0.000000 -5.250277 3.520575 10.525844 13.102370 -5.258891 -7.880854 14.632704 -20.395075 -29.059979 -2.947834 60.131428 0.854634 0.000000 0.000000 0.000000 
-6.273580 53.958374 28.238235 -179.905448 6.551932 -179.954202 -0.615117 0.649248 -16.457377 2.398492 6.925549 -72.023764 7.878042 4.298419 81.375823 5.032874 -19.990383 -6.907676 0.000000 0.000000 0.000000 -1.488183 6.366342 -14.835873 5.394100 2.809488 -79.843743 -1.873049 0.206391 93.920217 -3.482553 11.711586 -7.690216 0.000000 0.000000 0.000000 -3.156179 8.720535 -17.382985 -9.744229 -6.092970 2.481330 -2.517381 0.306061 11.856918 -0.024049 0.019011 0.026913 -3.050599 1.321778 15.312335 -2.227257 -3.519951 4.103577 0.000000 0.000000 0.000000 -0.010822 1.660790 10.857423 -15.061342 -6.213591 2.628613 -43.754810 -5.950087 21.930310 -26.287564 -78.807433 44.181724 0.000000 0.000000 0.000000 -5.228678 3.546073 10.551420 12.806823 -5.066265 -8.033179 14.292307 -20.762011 -31.087080 -3.321664 58.054497 0.806836 0.000000 0.000000 0.000000 
-6.430814 53.905830 28.535625 -179.737685 7.009902 179.898508 -0.978085 0.893627 -16.728581 2.953919 6.900567 -71.817445 7.476979 4.308687 81.238072 5.447829 -19.931814 -6.561274 0.000000 0.000000 0.000000 -1.528041 6.694348 -14.997929 5.549270 4.440105 -79.273566 -2.170016 0.001698 87.772166 -3.190451 10.955600 -6.884215 0.000000 0.000000 0.000000 -3.167886 8.933125 -17.040122 -9.788424 -5.955282 2.661750 -2.474147 0.331132 11.780765 -0.058958 0.029896 0.009033 -2.979232 1.393258 15.189975 -2.032071 -3.486902 3.928441 0.000000 0.000000 0.000000 0.033153 1.647685 10.792176 -14.965260 -6.335765 2.563834 -43.705038 -5.825869 21.703894 -25.307272 -79.152713 43.955075 0.000000 0.000000 0.000000 -5.201710 3.456299 10.537556 12.508687 -4.757390 -8.114566 14.148634 -21.176383 -32.994595 -3.752744 56.166251 0.701500 0.000000 0.000000 0.000000 
-6.559395 53.847126 28.736990 -179.707741 7.591985 179.936006 -1.308346 1.042075 -16.794773 3.704486 6.574636 -71.852593 7.258976 4.311382 81.107998 5.794992 -20.046136 -6.697398 0.000000 0.000000 0.000000 -1.637555 7.000890 -15.134079 6.196586 5.784831 -79.283238 -2.493150 -0.277061 82.115669 -2.966792 10.082446 -6.376952 0.000000 0.000000 0.000000 -3.357717 9.200950 -16.738847 -9.822704 -5.879395 2.767701 -2.426198 0.319947 11.694559 -0.087916 0.084850 0.033039 -2.948128 1.247632 15.113655 -2.027863 -3.707232 3.713313 0.000000 0.000000 0.000000 0.045627 1.629659 10.796878 -14.773324 -6.372051 2.512204 -43.631979 -5.814086 21.604812 -25.626600 -79.452025 45.078695 0.000000 0.000000 0.000000 -5.176869 3.453161 10.489702 12.305329 -4.730873 -8.404134 14.202865 -21.556770 -34.524229 -3.764663 54.513318 1.031372 0.000000 0.000000 0.000000 
-6.671030 53.798592 28.861731 -179.693207 8.144335 -179.996863 -1.618695 1.142958 -16.608370 4.563381 6.025134 -71.976520 7.130349 4.308196 80.911582 6.379076 -19.977222 -7.151657 0.000000 0.000000 0.000000 -1.737178 7.156380 -15.147042 7.357764 6.780030 -79.806628 -2.805621 -0.559921 77.469187 -2.851121 9.219726 -6.141734 0.000000 0.000000 0.000000 -3.600163 9.444745 -16.433415 -9.763543 -5.787702 2.819860 -2.417531 0.222384 11.591280 -0.027087 0.037570 -0.021966 -3.021235 1.173436 15.085309 -2.163086 -3.727407 3.486311 0.000000 0.000000 0.000000 0.009770 1.625442 10.787600 -14.622877 -6.241006 2.530483 -43.549269 -5.913031 21.647463 -25.949856 -79.774547 46.266875 0.000000 0.000000 0.000000 -5.208606 3.421832 10.474418 12.215158 -4.544565 -8.385234 14.475435 -21.945756 -35.812205 -4.109373 53.225062 0.965589 0.000000 0.000000 0.000000 
-6.772106 53.776787 28.944061 -179.714298 8.674380 179.937755 -1.863970 1.174502 -16.233483 5.429800 5.209670 -72.168667 7.048374 4.322265 80.797839 7.062770 -19.840610 -7.525292 0.000000 0.000000 0.000000 -1.938083 7.097415 -14.909523 8.994588 7.471357 -80.618485 -3.126020 -1.088530 74.020194 -2.932975 8.395601 -6.066977 0.000000 0.000000 0.000000 -3.821773 9.465080 -16.048173 -9.619577 -5.721155 2.891843 -2.486649 0.151926 11.521695 -0.069099 0.013365 -0.012379 -3.023320 1.216740 15.001008 -2.194615 -3.952634 3.286311 0.000000 0.000000 0.000000 -0.016722 1.602018 10.683134 -14.502604 -5.919179 2.652441 -43.527419 -6.292005 22.098177 -25.656364 -80.138569 46.916651 0.000000 0.000000 0.000000 -5.245077 3.389912 10.450386 12.095783 -4.356650 -8.543372 15.045044 -22.201091 -36.969710 -4.163198 52.312180 1.159164 0.000000 0.000000 0.000000 
-6.881610 53.789604 29.019247 -179.768298 9.051823 179.926649 -1.997381 1.066290 -15.840156 6.316727 4.174098 -72.447140 7.004762 4.311943 80.665108 7.783931 -19.703825 -7.816846 0.000000 0.000000 0.000000 -2.051817 6.879940 -14.666755 10.877046 7.758317 -81.783196 -3.415560 -1.484549 71.902651 -3.173103 7.747402 -6.093419 0.000000 0.000000 0.000000 -4.082258 9.358885 -15.693082 -9.401800 -5.712703 2.972204 -2.547439 0.098591 11.426512 -0.008079 0.126855 0.020880 -3.220286 1.127512 14.919715 -2.367839 -4.092795 3.013067 0.000000 0.000000 0.000000 -0.134197 1.429648 10.608154 -14.355610 -5.663290 2.856465 -43.464995 -6.865879 22.504065 -26.249663 -80.655334 48.489139 0.000000 0.000000 0.000000 -5.394865 3.177344 10.384086 12.212908 -4.157377 -8.516676 15.901908 -22.302219 -37.873570 -4.353013 51.941796 1.113973 0.000000 0.000000 0.000000 
